# xmcd
#
# Track frame offsets:
#	150
#	11822
#	21440
#	33170
#	45593
#	57791
#	70711
#	81832
#	93183
#	105268
#	118396
#	131334
#	141454
#	153134
#	164952
#	176100
#	186137
#	197202
#	209911
#	220189
#	233198
#	247091
#
# Disc length: 3460 seconds
#
# Revision: 4
# Processed by: cddbd v1.5.2PL0 Copyright (c) Steve Scherf et al.
# Submitted via: audiograbber 1.83.01
#
DISCID=440d8216
DTITLE=Country Stars in deutsch - Nashville Stars auf Europa-Tour
DYEAR=1900
DGENRE=Country
TTITLE0=Anita Kerr Singers - Jenny Darling
TTITLE1=Anita Kerr Singers - Singapur (La-Di-La Songs)
TTITLE2=Anita Kerr Singers - Bye, Bye Baby (Bye Bye BlackBird)
TTITLE3=Anita Kerr Singers - Cowboy's Heimweh (Home On The Range)
TTITLE4=Bobby Bare - Rosalie
TTITLE5=Bobby Bare - Alle Glauben Dass Ich Glücklich
TTITLE6=Willie Nelson - Whisky Walzer
TTITLE7=Willie Nelson - Little Darling (Pretty Paper)
TTITLE8=Jim Ed Brown - I Heard From A Memory Last Nigh
TTITLE9=Bobby Bare - Good Old Tennessee
TTITLE10=Bobby Bare - Das Haus Auf Der Sierra
TTITLE11=Bobby Bare - Wilder Wolf Und Brauner Bär (So ist das Leben)
TTITLE12=Bobby Bare - Molly Brown
TTITLE13=Anita Kerr Singers - Sentimental Cowboy
TTITLE14=Anita Kerr Singers - I'm Happy Baby
TTITLE15=Jim Ed Brown - Mickey
TTITLE16=Jim Ed Brown - Renate Und Karin
TTITLE17=Jim Ed Brown - Golden Girl
TTITLE18=Jim Ed Brown - Schöne Mädchen, Die Konnen Nich
TTITLE19=Stu Phillips - Irgendwann Sagt Man Goodbye
TTITLE20=Stu Phillips - Ol' Kentucky
TTITLE21=Skeeter Davis - GI Johnny
EXTD=
EXTT0=
EXTT1=
EXTT2=
EXTT3=
EXTT4=
EXTT5=
EXTT6=
EXTT7=
EXTT8=
EXTT9=
EXTT10=
EXTT11=
EXTT12=
EXTT13=
EXTT14=
EXTT15=
EXTT16=
EXTT17=
EXTT18=
EXTT19=
EXTT20=
EXTT21=
PLAYORDER=
